<?xml version="1.0" encoding="UTF-8"?>
<svg version="1.1" viewBox="0 0 1600 1600" width="1280" height="1280" xmlns="http://www.w3.org/2000/svg">
<path transform="translate(690 444)" d="m0 0c0.829 0.00514 1.66 0.0103 2.51 0.0156 0.879-0.00242 1.76-0.00483 2.66-0.00732 2.98-0.00568 5.95 0.00306 8.93 0.0116 2.14-0.00105 4.27-0.00296 6.41-0.00568 5.88-0.00483 11.8 0.00299 17.6 0.013 6.28 0.00867 12.6 0.00622 18.8 0.00529 12.2 1.75e-4 24.4 0.0117 36.6 0.0275 9.86 0.0126 19.7 0.021 29.6 0.0266 74.4 0.0437 149 0.209 223 0.583 4.14 0.0208 8.28 0.0409 12.4 0.0606 11.7 0.0555 23.4 0.116 35.1 0.186 3.49 0.0207 6.98 0.0395 10.5 0.0564 3.99 0.0195 7.98 0.0436 12 0.0714 1.43 0.00927 2.87 0.017 4.3 0.0229 8.8 0.0378 17.4 0.203 26.1 2.07 3.68 0.776 7.37 1.47 11.1 2.13 8.58 1.54 17 3.5 25.4 5.99 0.688 0.205 1.38 0.409 2.08 0.62 23.6 7.17 45.6 18 64.9 33.4 0.829 0.625 1.66 1.25 2.51 1.89 13.3 10.3 26.5 22.9 35.5 37.1 0.948 1.43 1.9 2.86 2.85 4.29 11.8 18 20.3 37 26.2 57.7 0.51 1.75 0.51 1.75 1.03 3.53 7.54 27.6 7.76 56.2 4.97 84.5-0.0738 0.766-0.148 1.53-0.224 2.32-0.48 4.4-1.51 8.44-2.78 12.7-0.436 1.95-0.871 3.9-1.29 5.85-3.38 15.4-9.32 29.3-16.7 43.2-0.355 0.676-0.709 1.35-1.07 2.05-5.15 9.76-10.9 18.4-17.9 27-0.929 1.16-1.86 2.31-2.79 3.47-4.99 6.15-4.99 6.15-7.21 8.53h-2c-0.33 0.99-0.66 1.98-1 3-1.38 1.39-1.38 1.39-3.12 2.81-0.94 0.777-0.94 0.777-1.9 1.57-0.652 0.534-1.3 1.07-1.98 1.62-1.25 1.06-2.5 2.12-3.75 3.19-0.552 0.468-1.1 0.936-1.67 1.42-1.05 0.93-2.07 1.9-3.06 2.89-5.2 5.15-15 13.5-22.5 13.5-0.33 0.99-0.66 1.98-1 3-1.61 0.957-1.61 0.957-3.75 1.81-3.95 1.64-7.82 3.37-11.7 5.19-15.1 7-15.1 7-18.6 7 1.48 4.89 3.5 9.28 5.81 13.8 0.359 0.711 0.718 1.42 1.09 2.15 2.19 4.32 4.45 8.59 6.84 12.8 5.05 8.96 9.78 18.1 14.6 27.2 2.48 4.71 4.98 9.41 7.52 14.1 2.44 4.5 4.75 9.05 7.02 13.6 1.47 2.91 3.07 5.75 4.67 8.59 4.5 8.14 8.77 16.4 13.1 24.6 0.865 1.65 1.73 3.29 2.59 4.94 0.425 0.809 0.85 1.62 1.29 2.45 2.18 4.14 4.38 8.27 6.65 12.4 2.4 4.36 4.61 8.79 6.81 13.2 2.88 5.82 5.97 11.4 9.29 17 3.45 5.91 6.59 12 9.77 18 0.805 1.53 1.61 3.05 2.41 4.58 1.69 3.21 3.38 6.43 5.07 9.64 2.37 4.51 4.75 9.02 7.14 13.5 0.368 0.696 0.737 1.39 1.12 2.11 1.78 3.35 3.56 6.7 5.35 10 3.14 5.85 6.23 11.7 9.16 17.7 3.65 7.38 7.61 14.6 11.6 21.8 7.17 13 7.17 13 7.17 15.6-30.3 0.0912-60.5 0.162-90.8 0.204-3.57 5e-3 -7.14 0.0102-10.7 0.0155-1.07 0.00157-1.07 0.00157-2.15 0.00318-11.5 0.0174-23 0.049-34.6 0.0857-11.8 0.0374-23.6 0.0596-35.4 0.0677-6.64 5e-3 -13.3 0.0176-19.9 0.0466-6.24 0.0271-12.5 0.0355-18.7 0.0295-2.3 0.0011-4.59 0.00911-6.89 0.0244-3.13 0.0198-6.25 0.0152-9.38 0.0042-0.917 0.0117-1.83 0.0233-2.78 0.0353-6.1-0.0582-6.1-0.0582-8.7-2.36-0.913-2.16-0.913-2.16-0.913-5.16h-2c-3-6.62-3-6.62-3-10h-2c-0.196-0.536-0.392-1.07-0.594-1.62-2.94-7.7-6.62-15-10.3-22.3-4.79-9.41-9.49-18.9-14.1-28.4-0.398-0.819-0.796-1.64-1.21-2.48-0.365-0.765-0.73-1.53-1.11-2.32-0.326-0.678-0.652-1.36-0.988-2.06-0.699-1.83-0.699-1.83-0.699-4.83h-2c-3-6.62-3-6.62-3-10h-2c-0.385-0.86-0.385-0.86-0.777-1.74-6.73-14.9-13.8-29.7-21.2-44.3-5.5-10.9-10.8-21.8-16-32.9-0.885-1.89-1.78-3.77-2.67-5.66-0.456-0.976-0.913-1.95-1.38-2.96-0.383-0.815-0.766-1.63-1.16-2.47-0.777-2.03-0.777-2.03-0.777-5.03h-2c-0.236-0.502-0.472-1-0.715-1.52-5.78-12.3-5.78-12.3-11.8-24.5-2.85-5.66-5.63-11.3-8.38-17.1-0.394-0.81-0.788-1.62-1.19-2.46-0.367-0.769-0.733-1.54-1.11-2.33-0.327-0.681-0.655-1.36-0.992-2.06-0.927-2.34-1.4-4.61-1.83-7.09-33.8-0.215-33.8-0.215-67.6 0.438-1.77 0.0589-1.77 0.0589-3.57 0.119-4.78-0.249-4.78-0.249-8.86 1.44-0.11 3.08-0.155 6.15-0.158 9.23-0.00494 0.981-0.00988 1.96-0.015 2.97-0.0155 3.31-0.0238 6.63-0.0321 9.94-0.00957 2.36-0.0196 4.73-0.03 7.09-0.0243 5.77-0.044 11.5-0.0618 17.3-0.0209 6.71-0.0473 13.4-0.0742 20.1-0.0477 12-0.091 23.9-0.131 35.9-0.0393 11.6-0.0808 23.3-0.125 34.9-0.00409 1.07-0.00409 1.07-0.00826 2.17-0.0137 3.59-0.0274 7.19-0.0411 10.8-0.114 29.8-0.221 59.7-0.323 89.5-12.7 0.84-25.3 1.14-37.9 1.11-1.92-2.83e-4 -3.85-1.22e-4 -5.77 4.43e-4 -5.16 2.84e-4 -10.3-0.00555-15.5-0.0126-5.42-0.0063-10.8-0.00684-16.3-0.00803-10.2-0.00309-20.5-0.0113-30.7-0.0213-11.7-0.0112-23.3-0.0167-35-0.0217-24-0.0104-47.9-0.028-71.9-0.0503-1.19-2.38-1.13-3.83-1.13-6.49-0.00276-0.953-0.00552-1.91-0.00836-2.89 0.00206-1.06 0.00411-2.11 0.00623-3.2-0.00263-1.68-0.00263-1.68-0.00531-3.39-0.0047-3.8-0.00219-7.59 2.34e-4 -11.4-0.00131-2.73-0.00413-5.46-0.00687-8.19-0.00517-5.96-0.00657-11.9-0.00554-17.9 0.00152-8.86-0.00263-17.7-0.00787-26.6-0.00969-16.7-0.0125-33.5-0.0131-50.2-4.59e-4 -12.9-0.00251-25.9-0.0057-38.8-8.97e-4 -3.72-0.00179-7.43-0.00267-11.2-2.21e-4 -0.924-4.42e-4 -1.85-6.7e-4 -2.8-0.00616-26-0.0101-52-0.00966-78 1.56e-5 -0.981 3.12e-5 -1.96 4.72e-5 -2.97 8.31e-5 -4.97 1.82e-4 -9.94 2.85e-4 -14.9 1.99e-5 -0.987 3.99e-5 -1.97 6.04e-5 -2.99 4.04e-5 -2 8.22e-5 -3.99 1.25e-4 -5.99 6.13e-4 -31.1-0.0069-62.2-0.0206-93.2-0.0153-34.9-0.024-69.8-0.023-105 7.46e-5 -3.72 1.23e-4 -7.43 1.54e-4 -11.2 1.17e-5 -0.915 2.33e-5 -1.83 3.53e-5 -2.77 3.08e-5 -14.8-0.00637-29.5-0.015-44.3-0.00846-14.8-0.00948-29.6-0.00289-44.5 0.00371-8.82 0.00182-17.6-0.00794-26.4-0.00596-5.88-0.00474-11.8 0.00247-17.6 0.00391-3.36 0.00349-6.71-0.00346-10.1-0.00697-3.6-0.00184-7.21 0.00656-10.8-0.00745-1.58-0.00745-1.58-0.0151-3.2 0.00475-0.953 0.0095-1.91 0.0144-2.89-8.82e-5 -0.825-1.76e-4 -1.65-2.67e-4 -2.5 0.602-4.8 4.11-4.23 8.11-4.25zm428 2.26v1h5v-1h-5zm-222 151c-0.298 2.24-0.298 2.24-0.241 4.87-0.00275 1.03-0.0055 2.06-0.00833 3.12 0.00719 1.13 0.0144 2.27 0.0218 3.44-2.92e-4 1.19-5.84e-4 2.38-8.85e-4 3.61 0.00116 3.27 0.0112 6.54 0.0251 9.81 0.0125 3.41 0.0137 6.83 0.0161 10.2 0.00622 6.47 0.0226 12.9 0.0427 19.4 0.0223 7.36 0.0333 14.7 0.0434 22.1 0.0209 15.1 0.0561 30.3 0.101 45.4 5.54 1.16 10.9 1.14 16.6 1.13 1.58 0.00263 1.58 0.00263 3.19 0.00531 3.49 0.0044 6.97 0.00148 10.5-0.00189 2.45 6.75e-4 4.9 0.00165 7.35 0.0029 5.15 0.00148 10.3-6.7e-4 15.5-0.00534 6.51-0.00562 13-0.00235 19.5 0.00341 32.4 0.0572 32.4 0.0572 64.8-0.454 1.16-0.022 2.31-0.044 3.5-0.0666 10.7-0.351 20.6-2.68 30.1-7.61 0.688-0.358 1.38-0.717 2.09-1.09 4.68-2.67 7.92-5.86 11.3-10 1.59-1.9 1.59-1.9 4.21-4.34 3.24-3.49 5.24-7.33 7.38-11.6 0.557-1.07 1.11-2.14 1.69-3.25 5.16-14.7 3.92-30.6 1.31-45.8h-2c-0.101-0.868-0.201-1.74-0.305-2.63-1.86-9.01-8.01-16.4-14.7-22.4-0.763-0.846-1.53-1.69-2.31-2.56-6.1-5.53-12.8-8.85-20.8-10.9-1.93-0.543-1.93-0.543-2.93-1.54-7.75-1.17-15.5-1.15-23.3-1.15-1.43-3e-3 -2.85-0.0064-4.28-0.0102-3.85-0.00878-7.7-0.0112-11.5-0.0118-2.41-7.13e-4 -4.81-0.00285-7.22-0.0055-8.39-0.00923-16.8-0.0133-25.2-0.0125-7.82 6.03e-4 -15.6-0.01-23.5-0.0257-6.72-0.0131-13.4-0.0184-20.2-0.0178-4.01 2.55e-4 -8.03-0.00262-12-0.0132-3.77-0.00964-7.53-0.00979-11.3-0.00248-1.38 0.00105-2.77-0.00134-4.15-0.00736-1.88-0.00766-3.77-0.0019-5.65 0.00463-1.06-5.45e-4 -2.11-0.00109-3.2-0.00165-2.66 0.00148-2.66 0.00148-4.49 2.25zm201 51 1 2z" fill="#FDFDFD"/>
<path transform="translate(323 444)" d="m0 0c1.21 0.00772 1.21 0.00772 2.44 0.0156 1.28-0.00362 1.28-0.00362 2.59-0.00732 2.88-0.00566 5.75 0.00304 8.63 0.0116 2.06-0.00107 4.11-0.00301 6.17-0.00575 5.6-0.00486 11.2 0.00282 16.8 0.013 5.85 0.00876 11.7 0.00702 17.5 0.00664 9.82 9.38e-4 19.6 0.00963 29.5 0.0233 11.4 0.0157 22.7 0.021 34.1 0.0203 10.9-6.1e-4 21.8 0.00449 32.7 0.0128 4.65 0.00354 9.31 0.00536 14 0.00589 5.48 1e-3 11 0.00708 16.4 0.0172 2.01 0.00293 4.03 0.00415 6.04 0.00357 2.74-4.88e-4 5.48 0.00514 8.22 0.0124 0.806-0.00155 1.61-0.0031 2.44-0.00469 5.49 0.0242 5.49 0.0242 7.72 1.14v664c-15 0.602-30 1.15-45 1.11-1.85-2.83e-4 -3.69-1.21e-4 -5.54 4.43e-4 -4.92 2.82e-4 -9.84-0.00551-14.8-0.0126-5.17-0.00634-10.3-0.00685-15.5-0.00803-9.76-0.00308-19.5-0.0113-29.3-0.0213-11.1-0.0113-22.2-0.0167-33.4-0.0217-22.8-0.0104-45.7-0.0279-68.5-0.0503-1.17-2.33-1.15-3.76-1.2-6.37-0.0195-0.917-0.0391-1.83-0.0592-2.78-0.0163-1.01-0.0326-2.01-0.0494-3.05-0.0307-1.58-0.0307-1.58-0.062-3.19-0.0658-3.5-0.124-7.01-0.181-10.5-0.021-1.21-0.0419-2.42-0.0636-3.67-0.428-24.9-0.527-49.7-0.513-74.6 0.00233-6.05-0.00126-12.1-0.00398-18.2-0.00413-11.1-0.00385-22.2-0.00109-33.3 0.00255-10.3 0.00316-20.6 0.00198-30.9-7.64e-5 -0.692-1.53e-4 -1.38-2.31e-4 -2.1-3.12e-4 -2.81-6.3e-4 -5.63-9.6e-4 -8.44-0.00304-26.2-3.17e-4 -52.5 0.0051-78.7 0.00472-23.1 0.00434-46.1-4.61e-4 -69.2-0.00542-26.1-0.00744-52.3-0.00439-78.4 3.2e-4 -2.82 6.33e-4 -5.64 9.43e-4 -8.46 7.91e-5 -0.694 1.58e-4 -1.39 2.4e-4 -2.1 0.00111-10.2-1.76e-4 -20.5-0.00272-30.7-0.0116-51.8 0.0315-104 0.492-155 0.027-3.18 0.0506-6.35 0.0731-9.53 0.0353-4.88 0.0804-9.76 0.134-14.6 0.0181-1.78 0.0329-3.55 0.0442-5.33 0.016-2.4 0.0442-4.81 0.0759-7.21 0.00195-0.703 0.0039-1.41 0.00591-2.13 0.11-6.42 1.76-7.24 8.03-7.28zm-7.72 98.3v9h1v-9h-1zm0 504v8h1v-8h-1z" fill="#FDFDFD"/>
<path transform="translate(896,1085)" d="m0 0h1v11h-1v-11z" fill="#000002"/>
<path transform="translate(528,1088)" d="m0 0 1 4z" fill="#000002"/>
<path transform="translate(1041,596)" d="m0 0 2 1z" fill="#000002"/>
</svg>
